<svg width="26" height="26" viewBox="0 0 26 26" fill="none" xmlns="http://www.w3.org/2000/svg">
<path fill-rule="evenodd" clip-rule="evenodd" d="M2.31276 11.3796C2.31276 6.47094 6.292 2.4917 11.2006 2.4917H15.579C19.9583 2.4917 23.5083 6.04177 23.5083 10.421V14.5709C23.5083 18.9684 19.9434 22.5334 15.5458 22.5334H11.9309L8.3692 22.4727C6.97759 22.449 5.58949 22.6195 4.24495 22.9791L3.74051 23.1141C2.56622 23.4282 1.5139 22.3103 1.8983 21.1571C2.28915 19.9845 2.47504 18.7534 2.44782 17.5177L2.31294 11.3963L3.07109 11.3796H2.31276ZM3.82943 11.3714L3.96411 17.4843C3.99518 18.8942 3.78308 20.2989 3.33714 21.6367C3.33641 21.6389 3.336 21.6405 3.33576 21.6416C3.33634 21.6426 3.3374 21.6443 3.33923 21.6462C3.34106 21.6482 3.34264 21.6493 3.34365 21.65C3.34475 21.6498 3.34639 21.6495 3.34861 21.6489L3.85305 21.514C5.33375 21.1179 6.86244 20.9302 8.39498 20.9563L11.9502 21.0167H15.5458C19.1058 21.0167 21.9917 18.1308 21.9917 14.5709V10.421C21.9917 6.8794 19.1206 4.00837 15.579 4.00837H11.2006C7.13235 4.00837 3.83383 7.30416 3.82943 11.3714Z" fill="#00A8CC"/>
<path d="M9.75004 13.0001C9.75004 13.5984 9.26502 14.0834 8.66671 14.0834C8.0684 14.0834 7.58337 13.5984 7.58337 13.0001C7.58337 12.4018 8.0684 11.9167 8.66671 11.9167C9.26502 11.9167 9.75004 12.4018 9.75004 13.0001Z" fill="#00A8CC"/>
<path d="M14.0834 13.0001C14.0834 13.5984 13.5983 14.0834 13 14.0834C12.4017 14.0834 11.9167 13.5984 11.9167 13.0001C11.9167 12.4018 12.4017 11.9167 13 11.9167C13.5983 11.9167 14.0834 12.4018 14.0834 13.0001Z" fill="#00A8CC"/>
<path d="M18.4167 13.0001C18.4167 13.5984 17.9316 14.0834 17.3333 14.0834C16.735 14.0834 16.25 13.5984 16.25 13.0001C16.25 12.4018 16.735 11.9167 17.3333 11.9167C17.9316 11.9167 18.4167 12.4018 18.4167 13.0001Z" fill="#00A8CC"/>
</svg>
