<svg width="21" height="24" viewBox="0 0 21 24" fill="none" xmlns="http://www.w3.org/2000/svg">
<path d="M19.5001 7.39393L12.7501 1.47643C12.1313 0.922979 11.3303 0.617004 10.5001 0.617004C9.66993 0.617004 8.86888 0.922979 8.25011 1.47643L1.50011 7.39393C1.14277 7.71351 0.857619 8.10555 0.663638 8.54395C0.469656 8.98235 0.371296 9.45705 0.375107 9.93643V19.7689C0.375107 20.664 0.730686 21.5225 1.36362 22.1554C1.99656 22.7883 2.855 23.1439 3.75011 23.1439H17.2501C18.1452 23.1439 19.0037 22.7883 19.6366 22.1554C20.2695 21.5225 20.6251 20.664 20.6251 19.7689V9.92518C20.6273 9.44769 20.5282 8.97516 20.3343 8.53882C20.1403 8.10248 19.856 7.71225 19.5001 7.39393V7.39393ZM12.7501 20.8939H8.25011V15.2689C8.25011 14.9706 8.36863 14.6844 8.57961 14.4734C8.79059 14.2625 9.07674 14.1439 9.37511 14.1439H11.6251C11.9235 14.1439 12.2096 14.2625 12.4206 14.4734C12.6316 14.6844 12.7501 14.9706 12.7501 15.2689V20.8939ZM18.3751 19.7689C18.3751 20.0673 18.2566 20.3534 18.0456 20.5644C17.8346 20.7754 17.5485 20.8939 17.2501 20.8939H15.0001V15.2689C15.0001 14.3738 14.6445 13.5154 14.0116 12.8824C13.3787 12.2495 12.5202 11.8939 11.6251 11.8939H9.37511C8.48 11.8939 7.62156 12.2495 6.98862 12.8824C6.35569 13.5154 6.00011 14.3738 6.00011 15.2689V20.8939H3.75011C3.45174 20.8939 3.16559 20.7754 2.95461 20.5644C2.74363 20.3534 2.62511 20.0673 2.62511 19.7689V9.92518C2.62531 9.76544 2.65952 9.60759 2.72548 9.4621C2.79143 9.31662 2.8876 9.18685 3.00761 9.08143L9.75761 3.17518C9.96291 2.99482 10.2268 2.89535 10.5001 2.89535C10.7734 2.89535 11.0373 2.99482 11.2426 3.17518L17.9926 9.08143C18.1126 9.18685 18.2088 9.31662 18.2747 9.4621C18.3407 9.60759 18.3749 9.76544 18.3751 9.92518V19.7689Z" fill="#FFFFFF"/>
</svg>
