<svg width="22" height="26" viewBox="0 0 22 26" fill="none" xmlns="http://www.w3.org/2000/svg">
<path fill-rule="evenodd" clip-rule="evenodd" d="M1.08446 14.9789V14.7234C1.12194 13.9675 1.36419 13.2351 1.78624 12.6018C2.48875 11.8409 2.96965 10.9086 3.1785 9.90254C3.1785 9.12498 3.1785 8.33632 3.24641 7.55876C3.5973 3.81539 7.29865 1.22723 10.9547 1.22723H11.0453C14.7014 1.22723 18.4027 3.81539 18.7649 7.55876C18.8328 8.33632 18.7649 9.12498 18.8215 9.90254C19.0332 10.9109 19.5136 11.8462 20.2138 12.6129C20.639 13.2406 20.8816 13.9703 20.9155 14.7234V14.9678C20.9408 15.9833 20.5911 16.9735 19.9308 17.7559C19.0583 18.6706 17.8743 19.2397 16.603 19.3554C12.875 19.7553 9.1137 19.7553 5.38572 19.3554C4.11583 19.2347 2.93355 18.6664 2.0579 17.7559C1.40783 16.9729 1.06278 15.9886 1.08446 14.9789Z" stroke="#4F4F4F" stroke-width="2" stroke-linecap="round" stroke-linejoin="round"/>
<path d="M8.14746 23.2209C8.72995 23.9521 9.58533 24.4252 10.5243 24.5357C11.4633 24.6462 12.4084 24.3849 13.1505 23.8097C13.3788 23.6395 13.5841 23.4417 13.7617 23.2209" stroke="#4F4F4F" stroke-width="2" stroke-linecap="round" stroke-linejoin="round"/>
</svg>
