<svg width="20" height="21" viewBox="0 0 20 21" fill="none" xmlns="http://www.w3.org/2000/svg">
<path fill-rule="evenodd" clip-rule="evenodd" d="M9.67612 2.16667C5.25253 2.16667 1.6665 5.67349 1.6665 9.99938C1.6665 14.3253 5.25253 17.8321 9.67612 17.8321C11.5681 17.8321 13.3068 17.1906 14.6773 16.1179L17.2807 18.6572L17.35 18.7155C17.5917 18.8904 17.9344 18.8705 18.1531 18.6561C18.3936 18.4202 18.3931 18.0383 18.1519 17.803L15.5792 15.2936C16.8873 13.8995 17.6857 12.0406 17.6857 9.99938C17.6857 5.67349 14.0997 2.16667 9.67612 2.16667ZM9.67612 3.37311C13.4184 3.37311 16.452 6.33979 16.452 9.99938C16.452 13.659 13.4184 16.6256 9.67612 16.6256C5.93388 16.6256 2.90019 13.659 2.90019 9.99938C2.90019 6.33979 5.93388 3.37311 9.67612 3.37311Z" fill="#00A8CC"/>
</svg>
