<svg width="17" height="16" viewBox="0 0 17 16" fill="none" xmlns="http://www.w3.org/2000/svg">
<path d="M12.75 5.33337C13.9236 5.33337 14.875 4.43794 14.875 3.33337C14.875 2.2288 13.9236 1.33337 12.75 1.33337C11.5764 1.33337 10.625 2.2288 10.625 3.33337C10.625 4.43794 11.5764 5.33337 12.75 5.33337Z" stroke="black" stroke-width="2" stroke-linecap="round" stroke-linejoin="round"/>
<path d="M4.25 10C5.4236 10 6.375 9.10457 6.375 8C6.375 6.89543 5.4236 6 4.25 6C3.07639 6 2.125 6.89543 2.125 8C2.125 9.10457 3.07639 10 4.25 10Z" stroke="black" stroke-width="2" stroke-linecap="round" stroke-linejoin="round"/>
<path d="M12.75 14.6666C13.9236 14.6666 14.875 13.7712 14.875 12.6666C14.875 11.5621 13.9236 10.6666 12.75 10.6666C11.5764 10.6666 10.625 11.5621 10.625 12.6666C10.625 13.7712 11.5764 14.6666 12.75 14.6666Z" stroke="black" stroke-width="2" stroke-linecap="round" stroke-linejoin="round"/>
<path d="M6.08459 9.00671L10.9225 11.66" stroke="black" stroke-width="2" stroke-linecap="round" stroke-linejoin="round"/>
<path d="M10.9154 4.33997L6.08459 6.9933" stroke="black" stroke-width="2" stroke-linecap="round" stroke-linejoin="round"/>
</svg>
