<svg width="24" height="25" viewBox="0 0 24 25" fill="none" xmlns="http://www.w3.org/2000/svg">
<g clip-path="url(#clip0_325_2609)">
<path d="M22 9.39394H17.21L12.83 2.83394C12.64 2.55394 12.32 2.41394 12 2.41394C11.68 2.41394 11.36 2.55394 11.17 2.84394L6.79 9.39394H2C1.45 9.39394 1 9.84394 1 10.3939C1 10.4839 1.01 10.5739 1.04 10.6639L3.58 19.9339C3.81 20.7739 4.58 21.3939 5.5 21.3939H18.5C19.42 21.3939 20.19 20.7739 20.43 19.9339L22.97 10.6639L23 10.3939C23 9.84394 22.55 9.39394 22 9.39394ZM12 5.19394L14.8 9.39394H9.2L12 5.19394ZM18.5 19.3939L5.51 19.4039L3.31 11.3939H20.7L18.5 19.3939ZM12 13.3939C10.9 13.3939 10 14.2939 10 15.3939C10 16.4939 10.9 17.3939 12 17.3939C13.1 17.3939 14 16.4939 14 15.3939C14 14.2939 13.1 13.3939 12 13.3939Z" fill="#4F4F4F"/>
</g>
<defs>
<clipPath id="clip0_325_2609">
<rect width="24" height="24" fill="white" transform="translate(0 0.393921)"/>
</clipPath>
</defs>
</svg>
